<svg id="feature_ico_html" xmlns="http://www.w3.org/2000/svg" width="120" height="120" viewBox="0 0 120 120">
  <path id="パス_250" data-name="パス 250" d="M120,60A60,60,0,1,1,60,0,59.9,59.9,0,0,1,120,60Z" fill="#f2f2f2"/>
  <path id="パス_251" data-name="パス 251" d="M103.592,28l-6.85,79.435a60.008,60.008,0,0,1-73.21.21L16.665,28Z" fill="#e64c18"/>
  <path id="パス_252" data-name="パス 252" d="M60.128,35.449v82.715L88.7,110.1l6.374-74.649Z" fill="#f36518"/>
  <path id="パス_253" data-name="パス 253" d="M33.024,45.827l2.8,33.179H73.069L71.85,92.711,60.129,95.886,47.92,92.466l-.307-8.545H36.242l1.424,16.847,22.463,6.349,22.463-6.349L85.376,67.8H46.155L45.182,57.06h0L86.3,56.844l.93-11.017Z" fill="#fff"/>
  <path id="パス_254" data-name="パス 254" d="M35.428,3.937v5.7H29.981v-5.7H24.915v16.34h5.067v-5.32h5.446v5.32h5.067V3.937Z"/>
  <path id="パス_255" data-name="パス 255" d="M58.481,3.937H42.9v5.7h5.067V20.4h5.447V9.637h5.067Z"/>
  <path id="パス_256" data-name="パス 256" d="M87.488,15.21V4.063H82.042V20.4h13.3V15.21Z"/>
  <path id="パス_257" data-name="パス 257" d="M73.808,4.063l-3.8,5.827-3.8-5.827H60.761V20.4h5.447V12.3l3.8,5.827,3.8-5.827V20.4h5.447V4.063Z"/>
</svg>
