<svg id="feature_ico_docker" xmlns="http://www.w3.org/2000/svg" width="120" height="120" viewBox="0 0 120 120">
  <path id="パス_271" data-name="パス 271" d="M120,60a61.973,61.973,0,1,1-.01-1.021C120,59.319,120,59.66,120,60Z" fill="#006bc0"/>
  <g id="グループ_13" data-name="グループ 13">
    <path id="パス_272" data-name="パス 272" d="M119.99,58.979c-5.123,6.24-15.162,5.753-15.162,5.753C98.637,91.4,61.249,104.978,35.29,98.31S12.9,60.683,12.9,60.683h75.97c6.269,0,6.747-1.905,6.747-1.905C90.064,45.6,98.638,38.535,98.638,38.535c6.669,1.193,8.334,12.622,8.334,12.622a22.25,22.25,0,0,1,12.558,1.31A59.481,59.481,0,0,1,119.99,58.979Z" fill="#f2f2f2"/>
    <rect id="長方形_13" data-name="長方形 13" width="10.638" height="9.684" transform="translate(21 48.617)" fill="#f2f2f2"/>
    <rect id="長方形_14" data-name="長方形 14" width="10.638" height="9.684" transform="translate(34.369 48.617)" fill="#f2f2f2"/>
    <rect id="長方形_15" data-name="長方形 15" width="10.638" height="9.684" transform="translate(74.471 48.617)" fill="#f2f2f2"/>
    <rect id="長方形_16" data-name="長方形 16" width="10.638" height="9.684" transform="translate(61.104 48.617)" fill="#f2f2f2"/>
    <rect id="長方形_17" data-name="長方形 17" width="10.638" height="9.684" transform="translate(61.104 23.851)" fill="#f2f2f2"/>
    <rect id="長方形_18" data-name="長方形 18" width="10.638" height="9.684" transform="translate(47.735 48.617)" fill="#f2f2f2"/>
    <rect id="長方形_19" data-name="長方形 19" width="10.638" height="9.684" transform="translate(34.369 36.233)" fill="#f2f2f2"/>
    <rect id="長方形_20" data-name="長方形 20" width="10.638" height="9.684" transform="translate(61.104 36.233)" fill="#f2f2f2"/>
    <rect id="長方形_21" data-name="長方形 21" width="10.638" height="9.684" transform="translate(47.735 36.233)" fill="#f2f2f2"/>
  </g>
</svg>
