<svg id="feature_ico_ruby" xmlns="http://www.w3.org/2000/svg" width="120" height="120" viewBox="0 0 120 120">
  <path id="パス_258" data-name="パス 258" d="M120,60A60,60,0,0,1,11.016,94.656h0a59.7,59.7,0,0,1-9.13-19.685v0A60.012,60.012,0,1,1,120,60Z" fill="#f2f2f2"/>
  <path id="パス_259" data-name="パス 259" d="M115.717,37.695c0,.047-.01.1-.015.144a31.893,31.893,0,0,1-2.76,9.468l0,0L87.108,113.04,17.919,96.813q-1.275-.25-2.473-.58a29.059,29.059,0,0,1-4.43-1.577h0a59.743,59.743,0,0,1-9.13-19.685c.206-.86.536-2.187.972-3.818,1.68-6.291,4.944-17.074,8.868-22.744l.382,13.117L37.957,63.25,73,46.59,88.126,24.377l-6.7-10.724c11.177,2.711,18.26,5.16,22.719,7.092.74.318,1.406.624,2.006.913,4.479,2.162,5.339,3.478,5.339,3.478a11.193,11.193,0,0,1,3.257,4.374A16.956,16.956,0,0,1,115.717,37.695Z" fill="#9b0a0e"/>
  <ellipse id="楕円形_11" data-name="楕円形 11" cx="17.379" cy="39.206" rx="17.379" ry="39.206" transform="translate(21.546 70.627) rotate(-116.916)" fill="#ef0e13"/>
  <g id="グループ_10" data-name="グループ 10">
    <path id="パス_260" data-name="パス 260" d="M70.589,86.512l16.518,26.529L43.595,95.962A113.027,113.027,0,0,0,70.589,86.512Z" fill="#f5655e"/>
    <path id="パス_261" data-name="パス 261" d="M11.723,48.409l.383,13.117L2.855,71.152C4.537,64.862,7.8,54.079,11.723,48.409Z" fill="#f5655e"/>
  </g>
  <g id="グループ_11" data-name="グループ 11">
    <path id="パス_262" data-name="パス 262" d="M12.105,61.526,4.163,82a59.368,59.368,0,0,1-2.28-7.033v0c.208-.86.536-2.187.972-3.815Z" fill="#950c10"/>
    <path id="パス_263" data-name="パス 263" d="M88.128,24.377,115.7,37.839a31.887,31.887,0,0,1-2.761,9.469l0,0a52.285,52.285,0,0,1-4.28,7.606Z" fill="#950c10"/>
  </g>
  <g id="グループ_12" data-name="グループ 12">
    <path id="パス_264" data-name="パス 264" d="M112.939,47.31l-25.832,65.73,6.616-41.689a82.7,82.7,0,0,0,14.936-16.436A52.34,52.34,0,0,0,112.939,47.31Z" fill="#ef0e13"/>
    <path id="パス_265" data-name="パス 265" d="M88.128,24.377l20.531,30.539L73,46.59Z" fill="#ef0e13"/>
  </g>
  <path id="パス_266" data-name="パス 266" d="M104.146,20.745,88.128,24.377l-6.7-10.725C92.6,16.365,99.686,18.813,104.146,20.745Z" fill="#f5655e"/>
  <path id="パス_267" data-name="パス 267" d="M73,46.59,93.723,71.352A111.575,111.575,0,0,1,71.742,85.936c-.385.2-.768.387-1.153.577Z" fill="#950c10"/>
  <path id="パス_268" data-name="パス 268" d="M73,46.59,70.589,86.512,37.957,63.25Z" fill="#ef0e13"/>
  <path id="パス_269" data-name="パス 269" d="M37.957,63.25,70.589,86.512a113.037,113.037,0,0,1-26.994,9.45Z" fill="#950c10"/>
  <path id="パス_270" data-name="パス 270" d="M37.957,63.25,15.446,96.234l-3.34-34.708Z" fill="#f5655e"/>
</svg>
