<svg id="ico_sns_instagram" xmlns="http://www.w3.org/2000/svg" width="80" height="80" viewBox="0 0 80 80">
  <path id="パス_223" data-name="パス 223" d="M222.289,214.645A7.645,7.645,0,1,1,214.645,207,7.644,7.644,0,0,1,222.289,214.645Zm0,0" transform="translate(-174.645 -174.645)"/>
  <path id="パス_224" data-name="パス 224" d="M172.164,140.764a7.594,7.594,0,0,0-4.352-4.352,12.688,12.688,0,0,0-4.258-.789c-2.419-.11-3.144-.134-9.267-.134s-6.849.023-9.267.133a12.7,12.7,0,0,0-4.258.79,7.6,7.6,0,0,0-4.353,4.352,12.693,12.693,0,0,0-.789,4.259c-.11,2.418-.134,3.143-.134,9.267s.024,6.849.134,9.267a12.688,12.688,0,0,0,.789,4.258,7.594,7.594,0,0,0,4.352,4.352,12.673,12.673,0,0,0,4.259.79c2.418.11,3.143.133,9.267.133s6.85-.023,9.267-.133a12.673,12.673,0,0,0,4.259-.79,7.594,7.594,0,0,0,4.352-4.352,12.7,12.7,0,0,0,.79-4.258c.11-2.419.133-3.144.133-9.267s-.023-6.849-.133-9.267A12.673,12.673,0,0,0,172.164,140.764Zm-17.878,25.3a11.776,11.776,0,1,1,11.776-11.776A11.776,11.776,0,0,1,154.286,166.066ZM166.528,144.8a2.752,2.752,0,1,1,2.752-2.752A2.752,2.752,0,0,1,166.528,144.8Zm0,0" transform="translate(-114.286 -114.289)"/>
  <path id="パス_225" data-name="パス 225" d="M40,0A40,40,0,1,0,80,40,40,40,0,0,0,40,0ZM62.83,49.47a16.852,16.852,0,0,1-1.068,5.576,11.744,11.744,0,0,1-6.718,6.718A16.863,16.863,0,0,1,49.47,62.83c-2.449.112-3.232.139-9.47.139s-7.02-.027-9.47-.139a16.863,16.863,0,0,1-5.575-1.068,11.744,11.744,0,0,1-6.718-6.718A16.848,16.848,0,0,1,17.17,49.47c-.113-2.45-.139-3.232-.139-9.47s.026-7.02.139-9.47a16.853,16.853,0,0,1,1.067-5.576,11.752,11.752,0,0,1,6.718-6.718A16.867,16.867,0,0,1,30.53,17.17c2.449-.112,3.232-.139,9.47-.139s7.02.027,9.47.139a16.871,16.871,0,0,1,5.576,1.066,11.748,11.748,0,0,1,6.718,6.718,16.85,16.85,0,0,1,1.068,5.576c.112,2.449.138,3.232.138,9.47S62.943,47.02,62.83,49.47Zm0,0"/>
</svg>
