<svg xmlns="http://www.w3.org/2000/svg" width="50" height="50" viewBox="0 0 50 50">
  <g id="ico_mail" transform="translate(-1706 -22)">
    <path id="パス_275" data-name="パス 275" d="M0,0H50V50H0Z" transform="translate(1706 22)" fill="none"/>
    <path id="パス_273" data-name="パス 273" d="M20.692,61H1.994A1.9,1.9,0,0,0,0,62.769V74.562A1.894,1.894,0,0,0,1.994,76.33h18.7a1.9,1.9,0,0,0,1.994-1.769V62.769A1.894,1.894,0,0,0,20.692,61Zm-.275,1.179-9.031,8.012-9.11-8.012ZM1.329,74.317V63.007l6.4,5.631Zm.94.834,6.406-5.683,2.245,1.974a.726.726,0,0,0,.938,0L14.046,69.5l6.371,5.652Zm19.087-.834-6.371-5.652,6.371-5.652Z" transform="translate(1720 -22)" fill="#fff"/>
  </g>
</svg>
