<svg xmlns="http://www.w3.org/2000/svg" width="50" height="50" viewBox="0 0 50 50">
  <g id="ico_write" transform="translate(-1775 -4)">
    <path id="パス_274" data-name="パス 274" d="M0,0H50V50H0Z" transform="translate(1775 4)" fill="none"/>
    <path id="writing" d="M1.793,23.042a3.185,3.185,0,0,0,.878.286l-.477.681a1.086,1.086,0,0,0-.184.462L1.3,29.259a1.082,1.082,0,0,0,1.586,1.11L6.9,28.2a3.243,3.243,0,0,0,5.007.851,3.245,3.245,0,0,0,5.411-2.418v-.414a14.911,14.911,0,0,0,6.493,1.5,15.072,15.072,0,0,0,6.637-1.533V28.8a1.082,1.082,0,0,0,1.566.968L36.339,27.6a1.082,1.082,0,0,0,.6-.968V13.645a1.082,1.082,0,0,0-1.082-1.082H28.386L20.752,8.827l2.9-4.142a1.082,1.082,0,0,0-.266-1.507L19.841.7a1.083,1.083,0,0,0-1.507.266L14.5,6.441a3.229,3.229,0,0,0-2.627-.171L7.751,8.059A3.234,3.234,0,0,0,6.305,9.3L.4,18.589a3.24,3.24,0,0,0,1.4,4.453ZM3.76,27.435l.355-2.394.968-1.382a4.359,4.359,0,0,0,1.64,1.432l-.835,1.192Zm5.979.278a1.084,1.084,0,0,1-1.082-1.082V26.1l.387-.553h1.777v1.082A1.083,1.083,0,0,1,9.738,27.713Zm4.329,0a1.083,1.083,0,0,1-1.082-1.082V25.549h2.164v1.082A1.084,1.084,0,0,1,14.067,27.713Zm20.706-1.751-2.165,1.082V14.727h2.165ZM27.66,14.617a1.083,1.083,0,0,0,.476.11h2.309v9.056a14.219,14.219,0,0,1-6.637,1.766,14.615,14.615,0,0,1-7.091-2.05,1.094,1.094,0,0,0-.484-.114H8.656a2.167,2.167,0,0,1-2.149-1.908A1.081,1.081,0,0,0,6.5,21a2.167,2.167,0,0,1,2.154-1.948h6.679a8.417,8.417,0,0,0,5.99-2.481A1.082,1.082,0,0,0,19.8,15.044a6.267,6.267,0,0,1-4.46,1.848h-.229L19.5,10.623ZM17,6.635l1.773,1.242-6.312,9.015H9.821Zm2.483-3.546,1.773,1.241L20.017,6.1,18.244,4.862ZM2.258,19.7l5.874-9.239a1.079,1.079,0,0,1,.482-.412L12.68,8.278a1.086,1.086,0,0,1,.543-.017l-6.3,8.993a4.341,4.341,0,0,0-2.546,3.3,1.244,1.244,0,0,1-1.618.556A1.081,1.081,0,0,1,2.258,19.7Zm0,0" transform="translate(1781 13.5)" fill="#fff"/>
  </g>
</svg>
